<svg width="37" height="37" viewBox="0 0 37 37" fill="none" xmlns="http://www.w3.org/2000/svg">
<g clip-path="url(#clip0)">
<path d="M30.2251 3.948H29.1271V2.75C29.1271 1.233 27.9301 0 26.4571 0C24.9831 0 23.7871 1.233 23.7871 2.75V3.947H21.0471V2.75C21.0471 1.233 19.8501 0 18.3771 0C16.9041 0 15.7071 1.233 15.7071 2.75V3.947H12.9671V2.75C12.9671 1.233 11.7701 0 10.2971 0C8.8241 0 7.6271 1.233 7.6271 2.75V3.947H6.2251C3.8821 3.947 1.9751 5.854 1.9751 8.197V32.197C1.9751 34.54 3.8821 36.447 6.2251 36.447H30.2251C32.5691 36.447 34.4751 34.54 34.4751 32.197V8.197C34.4751 5.855 32.5681 3.948 30.2251 3.948ZM25.2871 2.75C25.2871 2.061 25.8121 1.5 26.4571 1.5C27.1031 1.5 27.6271 2.061 27.6271 2.75V7.646C27.6271 8.335 27.1031 8.896 26.4571 8.896C25.8121 8.896 25.2871 8.335 25.2871 7.646V2.75ZM17.2071 2.75C17.2071 2.061 17.7321 1.5 18.3771 1.5C19.0221 1.5 19.5471 2.061 19.5471 2.75V7.646C19.5471 8.335 19.0221 8.896 18.3771 8.896C17.7321 8.896 17.2071 8.335 17.2071 7.646V2.75ZM9.1261 2.75C9.1261 2.061 9.6511 1.5 10.2961 1.5C10.9411 1.5 11.4661 2.061 11.4661 2.75V7.646C11.4661 8.335 10.9411 8.896 10.2961 8.896C9.6511 8.896 9.1261 8.335 9.1261 7.646V2.75ZM31.9751 32.198C31.9751 33.163 31.1901 33.948 30.2251 33.948H6.2251C5.2601 33.948 4.4751 33.163 4.4751 32.198V10.198H31.9751V32.198Z" fill="black"/>
<path d="M11.3201 14.626H6.7251V18.715H11.3201V14.626Z" fill="black"/>
<path d="M17.4542 14.626H12.8582V18.715H17.4542V14.626Z" fill="black"/>
<path d="M23.5911 14.626H18.9961V18.715H23.5911V14.626Z" fill="black"/>
<path d="M29.7252 14.626H25.1292V18.715H29.7252V14.626Z" fill="black"/>
<path d="M11.3201 20.084H6.7251V24.17H11.3201V20.084Z" fill="black"/>
<path d="M17.4542 20.084H12.8582V24.17H17.4542V20.084Z" fill="black"/>
<path d="M23.5911 20.084H18.9961V24.17H23.5911V20.084Z" fill="black"/>
<path d="M29.7252 20.084H25.1292V24.17H29.7252V20.084Z" fill="black"/>
<path d="M11.3201 25.54H6.7251V29.626H11.3201V25.54Z" fill="black"/>
<path d="M17.4542 25.54H12.8582V29.626H17.4542V25.54Z" fill="black"/>
<path d="M23.5911 25.54H18.9961V29.626H23.5911V25.54Z" fill="black"/>
<path d="M29.7252 25.54H25.1292V29.626H29.7252V25.54Z" fill="black"/>
</g>
<defs>
<clipPath id="clip0">
<rect width="36.447" height="36.447" fill="white" transform="translate(0.000976562)"/>
</clipPath>
</defs>
</svg>
