<svg width="19" height="19" viewBox="0 0 19 19" fill="none" xmlns="http://www.w3.org/2000/svg">
<g clip-path="url(#clip0)">
<path d="M18.7455 0.857556C18.591 0.793121 18.4134 0.829482 18.2952 0.946773L9.50071 9.74212L0.706223 0.947625C0.58808 0.829482 0.408832 0.793973 0.255993 0.857594C0.101528 0.921177 0.000732422 1.07235 0.000732422 1.23921V8.67399C0.000732422 8.78384 0.0445279 8.88878 0.121354 8.96642L9.20832 18.0534C9.28929 18.1335 9.395 18.174 9.50075 18.174C9.6065 18.174 9.71222 18.1335 9.79319 18.0534L18.8801 8.96642C18.957 8.88878 19.0008 8.78384 19.0008 8.67399V1.23921C19.0007 1.07235 18.8999 0.921177 18.7455 0.857556Z" fill="#525252"/>
</g>
<defs>
<clipPath id="clip0">
<rect width="19" height="19" fill="white" transform="translate(0.000732422)"/>
</clipPath>
</defs>
</svg>
