<svg width="41" height="41" viewBox="0 0 41 41" fill="none" xmlns="http://www.w3.org/2000/svg">
<path d="M40.9967 29.5885L22.7427 21.3197C22.7427 21.5838 22.7427 21.82 22.7427 22.0563C22.6223 24.3725 22.5065 26.7095 22.3953 29.0674C22.305 30.8045 22.2216 32.5417 22.1243 34.2719C22.1159 34.3432 22.1286 34.4153 22.1607 34.4795C22.1928 34.5437 22.2429 34.5971 22.305 34.6332L27.2941 38.177C27.3348 38.1997 27.3686 38.233 27.3918 38.2734C27.4151 38.3137 27.4269 38.3597 27.4261 38.4063C27.4261 39.2054 27.4261 39.9975 27.4261 40.7897C27.4261 41.0051 27.4261 41.0259 27.1829 40.9703L20.4566 39.1428C20.3832 39.1289 20.3078 39.1289 20.2343 39.1428L13.6331 40.8244L13.3969 40.88V40.6646C13.3969 39.8655 13.4455 39.0595 13.4664 38.2604C13.4641 38.2143 13.4745 38.1686 13.4966 38.1281C13.5187 38.0876 13.5515 38.0541 13.5914 38.0311L17.5452 35.3211C17.9413 35.0501 18.3373 34.7791 18.7264 34.5012C18.7864 34.4374 18.8189 34.3525 18.8168 34.2649C18.8168 33.2435 18.7542 32.229 18.7195 31.2076C18.6176 28.0575 18.5157 24.9052 18.4138 21.7505C18.4138 21.5977 18.4138 21.4378 18.4138 21.2502L0 29.2272V28.6505C0.0347429 27.4762 0.0694859 26.3019 0.111177 25.1275C0.114438 25.086 0.125952 25.0456 0.145043 25.0086C0.164134 24.9716 0.190419 24.9388 0.222355 24.9121L4.53048 21.7297L8.22713 18.9919L12.3198 15.9832L16.6766 12.7382L17.8718 11.8488C17.9433 11.7949 17.9907 11.715 18.0038 11.6264C18.1242 8.92111 18.2308 6.21811 18.3234 3.51743C18.3425 2.98526 18.4665 2.4621 18.6883 1.97797C18.9101 1.49384 19.2253 1.05829 19.6159 0.696301C19.8963 0.414595 20.2391 0.202756 20.6165 0.0778767C20.967 -0.033184 21.3445 -0.0252641 21.69 0.100404C22.0356 0.226073 22.33 0.462442 22.5273 0.772736C22.9641 1.44935 23.2486 2.21277 23.3612 3.01018C23.5475 4.12096 23.5988 5.2502 23.514 6.3733C23.4584 7.90894 23.389 9.43763 23.3195 10.9663C23.3195 11.1956 23.2778 11.4249 23.2778 11.6612C23.2772 11.7014 23.2849 11.7412 23.3004 11.7783C23.316 11.8154 23.339 11.8488 23.3681 11.8766C24.9315 13.0787 26.5089 14.2808 28.0792 15.476L40.8091 25.204C40.8562 25.2328 40.8947 25.2738 40.9204 25.3228C40.9461 25.3717 40.9581 25.4267 40.955 25.4819C40.955 26.7813 40.955 28.0876 40.9967 29.387C41.0011 29.4541 41.0011 29.5214 40.9967 29.5885Z" fill="#525252"/>
</svg>
