<svg width="157" height="37" viewBox="0 0 157 37" fill="none" xmlns="http://www.w3.org/2000/svg">
<g clip-path="url(#clip0)">
<g opacity="0.5">
<path opacity="0.5" d="M0.843994 15.4251V20.9323L8.74183 14.4669L16.6622 20.9323V15.4251L8.74183 8.95972L0.843994 15.4251Z" stroke="#FFE33E" stroke-width="4"/>
</g>
<path d="M0 0.445312V4.07542H6.75269V20.9858H10.793V4.07542H17.4838V0.445312H0Z" fill="white"/>
<path d="M31.9401 7.00655H23.353V10.9918H31.746V13.9877H23.353V17.9899H31.9345V20.9915H20.002V4.0275H31.9401V7.00655Z" fill="white"/>
<path d="M49.728 9.24154C49.7513 10.432 49.3737 11.5956 48.656 12.5447C47.8774 13.5162 46.7606 14.1566 45.5301 14.3372L50.6452 21.014H46.4642L41.4981 14.4979H38.828V21.014H35.4517V4.0275H43.8419C45.7776 4.0275 47.2464 4.5179 48.2255 5.51843C48.7211 5.99992 49.1107 6.57983 49.3694 7.22097C49.6282 7.86212 49.7503 8.55035 49.728 9.24154ZM38.7942 7.00655V11.4737H43.6112C44.3356 11.5125 45.0512 11.2994 45.637 10.8706C45.877 10.6738 46.0691 10.4248 46.1988 10.1426C46.3285 9.86031 46.3923 9.55218 46.3854 9.24154C46.3986 8.93072 46.3388 8.62113 46.2108 8.33769C46.0827 8.05425 45.8901 7.80489 45.6482 7.60969C45.0597 7.17791 44.3395 6.96468 43.6112 7.00655H38.7942Z" fill="white"/>
<path d="M57.094 4.0275L63.3431 17.4065L69.5893 4.0275H73.413V20.9915H70.0592V10.3576L65.1129 20.9915H61.4777L56.5341 10.3576V20.9915H53.1775V4.0275H57.094Z" fill="white"/>
<path d="M80.7115 4.0275V20.9915H77.3521V4.0275H80.7115Z" fill="white"/>
<path d="M96.7267 4.0275H100.083V20.9915H96.4482L88.0073 9.07808V20.9915H84.6506V4.0275H88.2887L96.7295 15.9409L96.7267 4.0275Z" fill="white"/>
<path d="M112.742 4.0275L120.141 20.9915H116.565L114.911 17.2458H107.148L105.491 20.9915H102.064L109.45 4.0275H112.742ZM111.039 8.47212L108.476 14.2442H113.583L111.039 8.47212Z" fill="white"/>
<path d="M125.471 4.0275V18.0124H134.052V21.014H122.111V4.0275H125.471Z" fill="white"/>
<path d="M157 4.07542H146.59V8.91461H156.755V12.5447H146.59V17.4065H157V21.0366H142.546V0.445312H157V4.07542Z" fill="#FFE33E"/>
<path d="M96.9265 25.3205C96.6387 25.1675 96.315 25.0955 95.9896 25.112C95.0526 25.112 94.5321 25.7349 94.5321 26.9299V28.2263H96.5607V29.4213H94.5377V36.7915H93.1872V29.3706H91.7241V28.184H93.1816V26.7748C93.164 26.3845 93.2252 25.9946 93.3616 25.6285C93.4979 25.2624 93.7065 24.9276 93.975 24.6441C94.2252 24.3889 94.5252 24.1881 94.8563 24.0543C95.1875 23.9204 95.5426 23.8564 95.8995 23.8663C96.2355 23.8552 96.5706 23.9078 96.8871 24.0213V25.3205H96.9265Z" fill="white"/>
<path d="M101.659 37C101.1 37.0219 100.542 36.9258 100.023 36.718C99.5032 36.5101 99.033 36.1953 98.6427 35.7937C97.8633 35.0158 97.4976 33.9251 97.4976 32.6287C97.4976 31.1744 97.914 30.0921 98.6933 29.2466C99.4727 28.4011 100.567 28.0516 101.867 28.0516C103.167 28.0516 104.155 28.4659 104.883 29.2466C105.612 30.0273 105.975 31.1152 105.975 32.5159C105.975 33.8659 105.612 34.9567 104.833 35.7853C103.977 36.5949 102.836 37.0317 101.659 37ZM101.763 29.162C101.373 29.1476 100.985 29.2191 100.625 29.3716C100.266 29.524 99.9447 29.7536 99.6837 30.0442C99.1632 30.6671 98.9016 31.4534 98.9016 32.5357C98.9016 33.5728 99.1632 34.3535 99.6837 34.9228C99.9447 35.2134 100.266 35.443 100.625 35.5955C100.985 35.7479 101.373 35.8194 101.763 35.805C102.146 35.8246 102.529 35.7552 102.881 35.6022C103.232 35.4492 103.544 35.2166 103.792 34.9228C104.259 34.3592 104.52 33.5136 104.52 32.4849C104.52 31.3942 104.259 30.5628 103.792 29.9935C103.534 29.716 103.219 29.498 102.869 29.3545C102.518 29.2109 102.141 29.1452 101.763 29.162Z" fill="white"/>
<path d="M111.749 37C111.189 37.0219 110.632 36.9258 110.112 36.718C109.593 36.5101 109.123 36.1953 108.732 35.7937C107.953 35.0158 107.587 33.9251 107.587 32.6287C107.587 31.1744 108.004 30.0921 108.786 29.2466C109.568 28.4011 110.657 28.0516 111.957 28.0516C113.257 28.0516 114.247 28.4659 114.973 29.2466C115.699 30.0273 116.067 31.1152 116.067 32.5159C116.067 33.8659 115.702 34.9567 114.922 35.7853C114.066 36.5949 112.925 37.0317 111.749 37ZM111.853 29.162C111.463 29.1476 111.074 29.2191 110.715 29.3716C110.356 29.524 110.034 29.7536 109.773 30.0442C109.253 30.6671 108.991 31.4534 108.991 32.5357C108.991 33.5728 109.253 34.3535 109.773 34.9228C110.034 35.2134 110.356 35.443 110.715 35.5955C111.074 35.7479 111.463 35.8194 111.853 35.805C112.236 35.8246 112.618 35.7552 112.97 35.6022C113.322 35.4492 113.634 35.2166 113.881 34.9228C114.351 34.3592 114.61 33.5136 114.61 32.4849C114.61 31.3942 114.351 30.5628 113.881 29.9935C113.623 29.716 113.308 29.498 112.958 29.3545C112.608 29.2109 112.231 29.1452 111.853 29.162Z" fill="white"/>
<path d="M125.532 36.7915H124.179V35.34H124.128C123.504 36.4279 122.516 37 121.163 37C120.672 37.023 120.183 36.9333 119.733 36.738C119.282 36.5426 118.882 36.2466 118.563 35.8727C117.887 34.9842 117.538 33.889 117.575 32.7724C117.575 31.3688 117.939 30.2265 118.667 29.3452C119.017 28.929 119.455 28.5965 119.95 28.3721C120.444 28.1478 120.983 28.0373 121.526 28.0488C122.724 28.0488 123.557 28.5138 124.128 29.458H124.179V24.1255H125.532V36.7915ZM124.179 32.95V31.7042C124.19 31.3799 124.136 31.0566 124.02 30.7535C123.904 30.4505 123.728 30.1738 123.504 29.9399C123.275 29.7034 122.999 29.5167 122.695 29.3916C122.39 29.2665 122.063 29.2056 121.734 29.2128C121.355 29.198 120.977 29.2754 120.635 29.4383C120.292 29.6012 119.993 29.8449 119.764 30.1485C119.25 30.8908 118.994 31.7823 119.036 32.685C119.036 33.6715 119.244 34.4522 119.714 35.0215C119.936 35.3037 120.221 35.5303 120.546 35.6834C120.87 35.8365 121.226 35.9119 121.585 35.9037C121.94 35.9209 122.294 35.855 122.62 35.7112C122.945 35.5674 123.232 35.3495 123.459 35.0751C123.939 34.4725 124.194 33.7208 124.179 32.95Z" fill="white"/>
<path d="M140.146 36.7915H138.796V31.8621C138.796 30.0949 138.121 29.162 136.826 29.162C136.501 29.1585 136.179 29.2263 135.882 29.3606C135.586 29.495 135.322 29.6927 135.11 29.9399C134.644 30.4884 134.403 31.1933 134.435 31.9128V36.7915H133.084V24.1255H134.438V29.6806H134.491C134.768 29.1803 135.177 28.7657 135.673 28.4819C136.169 28.1982 136.734 28.0561 137.305 28.0713C139.229 28.0713 140.217 29.2128 140.217 31.5492V36.7915H140.146Z" fill="white"/>
<path d="M148.886 36.7914H147.532V35.4414H147.482C146.857 36.4814 146.024 37 144.828 37C144.091 37.0405 143.366 36.7998 142.8 36.3264C142.559 36.0908 142.37 35.8074 142.244 35.4944C142.119 35.1814 142.06 34.8456 142.071 34.5085C142.071 32.8992 143.008 31.972 144.932 31.6901L147.532 31.3265C147.532 29.8751 146.969 29.1479 145.765 29.1479C144.735 29.1507 143.738 29.518 142.952 30.1851V28.7759C143.83 28.2468 144.839 27.9772 145.864 27.998C147.892 27.998 148.88 29.0859 148.88 31.2166L148.886 36.7914ZM147.532 32.4849L145.453 32.7442C144.942 32.8049 144.447 32.9627 143.995 33.2092C143.683 33.4178 143.528 33.8349 143.528 34.4042C143.523 34.6013 143.562 34.797 143.643 34.9766C143.724 35.1563 143.844 35.3152 143.995 35.4414C144.329 35.7255 144.757 35.8743 145.194 35.8585C145.514 35.8602 145.832 35.7966 146.127 35.6716C146.422 35.5466 146.688 35.3628 146.91 35.1314C147.14 34.8897 147.318 34.6041 147.434 34.2917C147.55 33.9792 147.601 33.6465 147.586 33.3135V32.4849H147.532Z" fill="white"/>
<path d="M152.839 36.7915H151.488V24.1255H152.839V36.7915Z" fill="white"/>
<path d="M157 36.7915H155.647V24.1255H157V36.7915Z" fill="white"/>
<g opacity="0.5">
<path opacity="0.5" d="M0.843994 7.19256V12.7025L8.74183 6.23712L16.6622 12.7025V7.19256L8.74183 0.727142L0.843994 7.19256Z" stroke="#FFE33E" stroke-width="4"/>
</g>
</g>
<defs>
<clipPath id="clip0">
<rect width="157" height="37" fill="white"/>
</clipPath>
</defs>
</svg>
