<svg width="22" height="22" viewBox="0 0 22 22" fill="none" xmlns="http://www.w3.org/2000/svg">
<path d="M21.065 17.105C20.4683 18.1665 19.8206 18.3617 18.502 18.436C17.1847 18.5254 13.8724 18.5625 11.0027 18.5625C8.12762 18.5625 4.81387 18.5254 3.498 18.4374C2.18212 18.3617 1.53312 18.1679 0.930875 17.105C0.31625 16.0449 0 14.2189 0 11.0041C0 11.0014 0 11 0 11C0 10.9973 0 10.9959 0 10.9959V10.9931C0 7.79212 0.31625 5.95238 0.930875 4.90325C1.53312 3.84175 2.18075 3.64925 3.49662 3.55987C4.81388 3.48287 8.12762 3.4375 11.0027 3.4375C13.8724 3.4375 17.1847 3.48288 18.5034 3.5585C19.822 3.64788 20.4696 3.84037 21.0664 4.90187C21.6865 5.951 22 7.79075 22 10.9918C22 10.9918 22 10.9959 22 10.9986C22 10.9986 22 11.0014 22 11.0027C22 14.2189 21.6865 16.0449 21.065 17.105ZM8.25 6.875V15.125L15.125 11L8.25 6.875Z" fill="#525252"/>
</svg>
